<?xml version="1.0" encoding="UTF-8"?>
<svg xmlns="http://www.w3.org/2000/svg" xmlns:xlink="http://www.w3.org/1999/xlink" width="1400pt" height="100pt" viewBox="0 0 1400 100" version="1.1">
<g id="surface1">
<path style=" stroke:none;fill-rule:nonzero;fill:#F8DFE6;fill-opacity:1;" d="M 0 20 L 46.667969 31.65625 C 93.332031 43.4375 186.667969 66.5625 280 68.34375 C 373.332031 70 466.667969 50 560 35 C 653.332031 20 746.667969 10 840 10 C 933.332031 10 1026.667969 20 1120 25 C 1213.332031 30 1306.667969 30 1353.332031 30 L 1400 30 L 1400 100 L 1353.332031 100 C 1306.667969 100 1213.332031 100 1120 100 C 1026.667969 100 933.332031 100 840 100 C 746.667969 100 653.332031 100 560 100 C 466.667969 100 373.332031 100 280 100 C 186.667969 100 93.332031 100 46.667969 100 L 0 100 Z M 0 20 "/>
</g>
</svg>
